<svg width="32" height="32" viewBox="0 0 32 32" fill="none" xmlns="http://www.w3.org/2000/svg">
<path fill-rule="evenodd" clip-rule="evenodd" d="M10.0185 1.58674C11.5646 1.5162 12.0582 1.49951 15.995 1.49951C19.9317 1.49951 20.4253 1.5162 21.9714 1.58674C23.5143 1.65711 24.568 1.90217 25.49 2.26053C26.4432 2.63091 27.2516 3.12656 28.0575 3.9324C28.8633 4.73831 29.359 5.54668 29.7294 6.49988C30.0877 7.4219 30.3328 8.47562 30.4031 10.0185C30.4737 11.5646 30.4904 12.0582 30.4904 15.995C30.4904 19.9317 30.4737 20.4253 30.4031 21.9714C30.3328 23.5143 30.0877 24.568 29.7294 25.49C29.359 26.4432 28.8633 27.2516 28.0575 28.0575C27.2516 28.8633 26.4432 29.359 25.49 29.7294C24.568 30.0877 23.5143 30.3328 21.9714 30.4031C20.4253 30.4737 19.9317 30.4904 15.995 30.4904C12.0582 30.4904 11.5646 30.4737 10.0185 30.4031C8.47562 30.3328 7.4219 30.0877 6.49988 29.7294C5.54668 29.359 4.73831 28.8633 3.9324 28.0575C3.12656 27.2516 2.63091 26.4432 2.26053 25.49C1.90217 24.568 1.65711 23.5143 1.58674 21.9714C1.5162 20.4253 1.49951 19.9317 1.49951 15.995C1.49951 12.0582 1.5162 11.5646 1.58674 10.0185C1.65711 8.47562 1.90217 7.4219 2.26053 6.49988C2.63091 5.54668 3.12656 4.73831 3.9324 3.9324C4.73831 3.12656 5.54668 2.63091 6.49988 2.26053C7.4219 1.90217 8.47562 1.65711 10.0185 1.58674ZM24.5439 4.69492C24.0331 4.49641 23.2656 4.26027 21.8523 4.19582C20.3238 4.12608 19.8654 4.1113 15.995 4.1113C12.1245 4.1113 11.666 4.12608 10.1375 4.19582C8.72425 4.26027 7.95673 4.49641 7.44595 4.69492C6.76934 4.95788 6.28647 5.27199 5.77926 5.77926C5.27199 6.28647 4.95788 6.76934 4.69492 7.44595C4.49641 7.95673 4.26027 8.72425 4.19582 10.1375C4.12608 11.666 4.1113 12.1245 4.1113 15.995C4.1113 19.8654 4.12608 20.3238 4.19582 21.8523C4.26027 23.2656 4.49641 24.0331 4.69492 24.5439C4.95788 25.2205 5.27204 25.7034 5.77926 26.2106C6.28647 26.7179 6.76934 27.032 7.44595 27.295C7.95673 27.4935 8.72425 27.7296 10.1375 27.7941C11.6659 27.8638 12.1242 27.8786 15.995 27.8786C19.8657 27.8786 20.3241 27.8638 21.8523 27.7941C23.2656 27.7296 24.0331 27.4935 24.5439 27.295C25.2205 27.032 25.7034 26.7179 26.2106 26.2106C26.7179 25.7034 27.032 25.2205 27.295 24.5439C27.4935 24.0331 27.7296 23.2656 27.7941 21.8523C27.8638 20.3238 27.8786 19.8654 27.8786 15.995C27.8786 12.1245 27.8638 11.666 27.7941 10.1375C27.7296 8.72425 27.4935 7.95673 27.295 7.44595C27.032 6.76934 26.7179 6.28647 26.2106 5.77926C25.7034 5.27199 25.2205 4.95788 24.5439 4.69492ZM15.995 8.55134C11.8839 8.55134 8.55134 11.8839 8.55134 15.995C8.55134 20.1059 11.8839 23.4385 15.995 23.4385C20.1059 23.4385 23.4385 20.1059 23.4385 15.995C23.4385 11.8839 20.1059 8.55134 15.995 8.55134ZM11.1631 15.995C11.1631 18.6635 13.3264 20.8267 15.995 20.8267C18.6635 20.8267 20.8267 18.6635 20.8267 15.995C20.8267 13.3264 18.6635 11.1631 15.995 11.1631C13.3264 11.1631 11.1631 13.3264 11.1631 15.995ZM23.7326 9.99668C24.6933 9.99668 25.4721 9.21794 25.4721 8.25726C25.4721 7.29658 24.6933 6.51778 23.7326 6.51778C22.772 6.51778 21.9932 7.29658 21.9932 8.25726C21.9932 9.21794 22.772 9.99668 23.7326 9.99668Z" fill="white"/>
</svg>
